<?xml version="1.0" encoding="UTF-8"?>
<svg id="Camada_1" data-name="Camada 1" xmlns="http://www.w3.org/2000/svg" viewBox="0 0 864 1080">
  <defs>
    <style>
      .cls-1 {
        fill: #8700ff;
      }
    </style>
  </defs>
  <path class="cls-1" d="m863.44,409.99c-.05-1.08-.1-2.16-.19-3.24.02-.08,0-.15-.02-.24-.13-2.23-.27-4.45-.44-6.68-.07-1.11-.15-2.23-.25-3.32-.08-1.11-.19-2.21-.29-3.32-.08-1.15-.19-2.31-.32-3.46-.1-1.05-.2-2.06-.32-3.09.02-.07.02-.14-.02-.2-.02-.39-.07-.78-.12-1.15-.34-3.29-.73-6.56-1.16-9.82-.08-.69-.19-1.37-.27-2.04-.02-.2-.05-.39-.08-.59-.2-1.57-.42-3.12-.66-4.67-.02-.14-.03-.27-.07-.39-.1-.84-.24-1.7-.39-2.55-.19-1.32-.39-2.62-.62-3.91-.17-1.06-.35-2.14-.54-3.21-.25-1.54-.52-3.07-.81-4.59-.08-.52-.19-1.03-.29-1.54-.73-3.95-1.52-7.88-2.38-11.78-.19-.93-.39-1.84-.61-2.77v-.02c-.34-1.49-.68-2.97-1.03-4.44-.15-.66-.3-1.32-.47-1.97-.07-.34-.14-.67-.24-1-.37-1.62-.78-3.22-1.18-4.81-.57-2.31-1.18-4.59-1.81-6.87-.62-2.26-1.25-4.52-1.91-6.77-.57-1.97-1.15-3.95-1.75-5.91-.76-2.51-1.55-5.03-2.36-7.53-1.42-4.34-2.89-8.64-4.44-12.93-.74-2.03-1.49-4.05-2.26-6.06-.34-.89-.68-1.77-1.01-2.65-.35-.96-.74-1.92-1.13-2.89-.37-.94-.74-1.89-1.13-2.84-1.25-3.16-2.55-6.28-3.91-9.38-.46-1.1-.93-2.18-1.4-3.26-.02-.03-.02-.07-.03-.08-.78-1.75-1.55-3.49-2.35-5.23-.02-.03-.03-.07-.05-.1-.88-1.92-1.77-3.85-2.68-5.77-.86-1.82-1.74-3.64-2.63-5.45-.46-.91-.89-1.82-1.37-2.73-.83-1.69-1.69-3.36-2.55-5.01-1-1.92-1.99-3.81-3.02-5.72-2.16-4.05-4.4-8.07-6.7-12.03-3.53-6.09-7.19-12.1-11.02-18.01-1.11-1.74-2.24-3.46-3.39-5.18-1.08-1.64-2.19-3.27-3.31-4.89-1.43-2.09-2.89-4.18-4.37-6.26-1.47-2.06-2.97-4.12-4.47-6.16-.64-.88-1.28-1.74-1.94-2.6-1.11-1.5-2.26-3-3.41-4.49-1.1-1.45-2.23-2.89-3.36-4.3-1.43-1.81-2.89-3.61-4.35-5.4-1.11-1.38-2.26-2.75-3.41-4.12-1.86-2.23-3.75-4.44-5.65-6.63-.49-.56-.98-1.11-1.49-1.69-1.84-2.08-3.7-4.13-5.57-6.18-2.78-3.04-5.62-6.04-8.51-9.01-1.28-1.32-2.56-2.63-3.88-3.95l-1.25-1.25c-.4-.42-.83-.84-1.25-1.23-1.67-1.65-3.34-3.29-5.05-4.91-.2-.19-.39-.37-.57-.54-1.49-1.42-2.97-2.82-4.49-4.22-.29-.27-.56-.52-.84-.78-1.64-1.52-3.29-3-4.94-4.49-.1-.08-.19-.17-.27-.22-1.23-1.11-2.46-2.19-3.7-3.26-5.06-4.44-10.23-8.74-15.49-12.91-1.59-1.27-3.21-2.51-4.83-3.78-.1-.07-.22-.15-.34-.25-1.86-1.43-3.75-2.85-5.64-4.25-1.89-1.4-3.8-2.8-5.7-4.17-1.92-1.38-3.85-2.73-5.79-4.08-7.75-5.38-15.69-10.51-23.81-15.37-1.97-1.2-3.97-2.38-5.97-3.53-.05-.03-.08-.05-.14-.08C584.45,21.04,510.69,0,432,0s-152.45,21.04-216,57.81c-65.59,37.92-120.27,92.61-158.19,158.19-2.29,3.97-4.54,7.98-6.7,12.03-1.03,1.91-2.02,3.8-3.02,5.72-.22.41-.42.81-.64,1.23-.79,1.57-1.6,3.16-2.4,4.74-.84,1.72-1.69,3.44-2.51,5.16-.51,1.01-1,2.03-1.45,3.04-.67,1.42-1.33,2.83-1.99,4.27-.19.4-.37.79-.54,1.2-.66,1.42-1.28,2.83-1.92,4.27-.35.79-.71,1.6-1.05,2.4-.74,1.72-1.49,3.44-2.21,5.18-.05.12-.1.24-.14.35-.83,1.92-1.62,3.86-2.38,5.8-.12.24-.2.47-.29.71-.73,1.81-1.43,3.61-2.13,5.42-.98,2.55-1.94,5.11-2.87,7.68-1.55,4.29-3.02,8.59-4.44,12.93-.02.05-.02.1-.03.14-.71,2.18-1.4,4.34-2.06,6.51-.03.07-.05.12-.05.19-.69,2.19-1.33,4.39-1.97,6.6-.66,2.24-1.28,4.51-1.91,6.77-.61,2.24-1.22,4.51-1.77,6.78-.02.02-.03.05-.03.08-.56,2.14-1.08,4.3-1.59,6.48-.05.17-.1.34-.14.52-.4,1.74-.81,3.48-1.2,5.23-.22.93-.42,1.84-.61,2.77-.46,2.08-.89,4.17-1.3,6.26-.25,1.21-.51,2.45-.73,3.68-.22,1.13-.44,2.24-.64,3.37-1.22,6.58-2.28,13.23-3.17,19.91-.19,1.35-.37,2.72-.52,4.08-.41,3.04-.76,6.08-1.05,9.13-.24,2.18-.46,4.35-.64,6.55-.2,2.21-.39,4.44-.54,6.65-.17,2.23-.3,4.46-.44,6.68-.14,2.19-.24,4.39-.34,6.58-.02.03-.02.08,0,.12h216.37c2.63-31.59,12.03-61.48,28.01-89.1,19.02-32.89,46.44-60.31,79.36-79.35,33.01-19.09,69.29-28.77,107.83-28.77s74.82,9.69,107.88,28.81c32.87,19.02,60.29,46.44,79.35,79.36,15.95,27.59,25.35,57.46,27.98,89.05h216.37s.02-.08,0-.12c-.03-1.03-.08-2.08-.14-3.11Z"/>
  <path class="cls-1" d="m216,57.81c-65.59,37.92-120.27,92.61-158.19,158.19-2.29,3.97-4.54,7.98-6.7,12.03-1.03,1.91-2.03,3.8-3.02,5.72-.22.4-.42.81-.64,1.23-.79,1.57-1.6,3.16-2.4,4.74-.84,1.72-1.69,3.44-2.51,5.16-.51,1.01-1,2.03-1.45,3.04-.68,1.42-1.33,2.83-1.99,4.27-.19.4-.37.79-.54,1.2-.66,1.42-1.28,2.84-1.92,4.27-.35.79-.71,1.6-1.05,2.4-.74,1.72-1.49,3.44-2.21,5.18-.05.12-.1.24-.13.35-.83,1.92-1.62,3.86-2.38,5.8-.12.24-.2.47-.29.71-.73,1.81-1.43,3.61-2.13,5.42-.98,2.55-1.94,5.11-2.87,7.68-1.54,4.29-3.02,8.59-4.44,12.93-.02.05-.02.1-.03.13-.71,2.18-1.4,4.34-2.06,6.51-.03.07-.05.12-.05.19-.69,2.19-1.33,4.39-1.97,6.6-.66,2.24-1.28,4.51-1.91,6.77-.61,2.24-1.21,4.51-1.77,6.78-.02.02-.03.05-.03.08-.56,2.14-1.08,4.3-1.59,6.48-.05.17-.1.34-.14.52-.4,1.74-.81,3.48-1.2,5.23-.22.93-.42,1.84-.61,2.77-.46,2.08-.89,4.17-1.3,6.26-.25,1.21-.51,2.45-.73,3.68-.22,1.13-.44,2.24-.64,3.38-1.22,6.58-2.28,13.23-3.17,19.91-.19,1.35-.37,2.72-.52,4.08-.41,3.04-.76,6.07-1.05,9.13-.24,2.18-.46,4.35-.64,6.55-.2,2.21-.39,4.44-.54,6.65-.17,2.23-.3,4.45-.44,6.68-.14,2.19-.24,4.39-.34,6.58-.02.03-.02.08,0,.12-.29,6.23-.42,12.49-.42,18.78v594c0,4.64.59,9.15,1.69,13.45,5.97,23.3,27.13,40.55,52.31,40.55h162V57.81h0Z"/>
  <path class="cls-1" d="m648,57.82v968.18c0,4.64.59,9.15,1.69,13.45,5.97,23.3,27.13,40.55,52.31,40.55h108c29.82,0,54-24.18,54-54V432c0-6.29-.14-12.55-.42-18.78.02-.03.02-.08,0-.12-.03-1.03-.08-2.08-.13-3.1-.05-1.08-.1-2.16-.19-3.24.02-.08,0-.15-.02-.24-.14-2.23-.27-4.46-.44-6.68-.07-1.11-.15-2.23-.25-3.32-.08-1.11-.19-2.21-.29-3.32-.08-1.15-.19-2.31-.32-3.46-.1-1.05-.2-2.06-.32-3.09.02-.07.02-.14-.02-.2-.02-.39-.07-.78-.12-1.15-.34-3.29-.73-6.56-1.16-9.82-.08-.69-.19-1.37-.27-2.04-.02-.2-.05-.39-.08-.59-.2-1.57-.42-3.12-.66-4.67-.02-.14-.03-.27-.07-.39-.1-.84-.24-1.7-.39-2.55-.19-1.32-.39-2.62-.62-3.92-.17-1.06-.35-2.14-.54-3.21-.25-1.54-.52-3.07-.81-4.59-.08-.52-.19-1.03-.29-1.54-.73-3.95-1.52-7.88-2.38-11.78-.19-.93-.39-1.84-.61-2.77v-.02c-.34-1.49-.67-2.97-1.03-4.44-.15-.66-.3-1.32-.47-1.97-.07-.34-.14-.67-.24-1-.37-1.62-.78-3.22-1.18-4.81-.57-2.31-1.18-4.59-1.81-6.87-.62-2.26-1.25-4.52-1.91-6.77-.57-1.97-1.15-3.95-1.76-5.91-.76-2.51-1.55-5.03-2.36-7.53-1.42-4.34-2.9-8.64-4.44-12.93-.74-2.03-1.49-4.05-2.26-6.06-.34-.89-.67-1.77-1.01-2.65-.35-.96-.74-1.92-1.13-2.89-.37-.95-.74-1.89-1.13-2.83-1.25-3.16-2.55-6.28-3.91-9.38-.46-1.1-.93-2.18-1.4-3.26-.02-.03-.02-.07-.03-.08-.78-1.76-1.55-3.49-2.35-5.23-.02-.03-.03-.07-.05-.1-.88-1.92-1.77-3.85-2.68-5.77-.86-1.82-1.74-3.64-2.63-5.45-.46-.91-.89-1.82-1.37-2.73-.83-1.69-1.69-3.36-2.55-5.01-1-1.92-1.99-3.81-3.02-5.72-2.16-4.05-4.4-8.07-6.7-12.03-1.01-1.74-2.03-3.48-3.05-5.2-.54-.89-1.08-1.81-1.64-2.7-.91-1.52-1.84-3.02-2.77-4.52-1-1.6-2.01-3.19-3.04-4.78-.15-.27-.34-.54-.52-.81-1.11-1.74-2.24-3.46-3.39-5.18-1.08-1.64-2.19-3.27-3.31-4.89-2.87-4.2-5.82-8.34-8.84-12.42-.64-.88-1.28-1.74-1.94-2.6-1.11-1.5-2.26-3-3.41-4.49-1.1-1.45-2.23-2.89-3.36-4.3-.29-.37-.57-.74-.88-1.1-1.1-1.4-2.21-2.78-3.34-4.15-1.52-1.86-3.05-3.7-4.59-5.54-1.05-1.23-2.09-2.45-3.14-3.66-.49-.57-.98-1.13-1.47-1.7-.49-.56-.98-1.11-1.48-1.69-1.84-2.08-3.7-4.13-5.57-6.18-2.78-3.04-5.62-6.04-8.51-9.01-1.06-1.11-2.16-2.23-3.26-3.32-.2-.22-.4-.42-.62-.62-.83-.83-1.65-1.67-2.5-2.48-6.94-6.87-14.11-13.48-21.48-19.83-.78-.69-1.57-1.37-2.35-2.03-3.8-3.22-7.63-6.38-11.53-9.47-1.59-1.27-3.21-2.51-4.83-3.78-.1-.07-.22-.15-.34-.25-1.86-1.43-3.75-2.85-5.64-4.25-1.89-1.42-3.8-2.8-5.7-4.17-1.92-1.38-3.85-2.73-5.79-4.08-7.75-5.38-15.69-10.51-23.81-15.37-2.02-1.23-4.07-2.43-6.11-3.61h0Z"/>
  <path class="cls-1" d="m431.99,0c-78.69,0-152.45,21.04-216,57.81-65.59,37.92-120.27,92.61-158.19,158.19h748.37c-37.92-65.58-92.61-120.27-158.19-158.19C584.44,21.04,510.68,0,431.99,0h0Z"/>
  <path class="cls-1" d="m755.78,540c-31.52,0-62.59,1.38-93.1,4.07-4.91.44-9.8.89-14.68,1.4-168.19,17.13-318.53,73.78-432,156.36-108.2,78.72-182.87,181.02-207.53,295.11-3.04,14.01-5.3,28.18-6.78,42.51,5.97,23.3,27.13,40.55,52.31,40.55h161.58c0-4.05.14-8.05.42-12.01,6.31-91.87,83.68-160.55,130.58-194.04,49.51-35.35,110.83-64.65,177.3-84.73,39.98-12.07,81.47-20.89,124.11-26.38,35.2-4.54,71.18-6.83,107.78-6.83,13.26,0,26.43.3,39.52.91,23.19,1.05,46.1,3.05,68.7,5.97v-217.4c-35.34-3.61-71.48-5.48-108.22-5.48Z"/>
</svg>